<?xml version="1.0" standalone="no"?><!DOCTYPE svg PUBLIC "-//W3C//DTD SVG 1.1//EN" "http://www.w3.org/Graphics/SVG/1.1/DTD/svg11.dtd"><svg t="1597127655356" class="icon" viewBox="0 0 1024 1024" version="1.1" xmlns="http://www.w3.org/2000/svg" p-id="13608" xmlns:xlink="http://www.w3.org/1999/xlink" width="32" height="32"><defs><style type="text/css"></style></defs><path d="M336 704h352c9.6 0 16 6.4 16 16s-6.4 16-16 16H336c-9.6 0-16-6.4-16-16s6.4-16 16-16z" fill="#ABB8CC" p-id="13609" style="user-select: auto;"></path><path d="M320 528c0-9.6 6.4-16 16-16h224c9.6 0 16 6.4 16 16s-6.4 16-16 16H336c-9.6 0-16-6.4-16-16z" fill="#2C7CF5" p-id="13610" style="user-select: auto;"></path><path d="M576 0H192C156.8 0 128 28.8 128 64v896c0 35.2 28.8 64 64 64h640c35.2 0 64-28.8 64-64V320L576 0z m16 60.8L835.2 304H640c-27.2 0-48-20.8-48-48V60.8zM864 960c0 17.6-14.4 32-32 32H192c-17.6 0-32-14.4-32-32V64c0-17.6 14.4-32 32-32h368v224c0 44.8 35.2 80 80 80h224v624z" fill="#ABB8CC" p-id="13611" style="user-select: auto;"></path></svg>