<?xml version="1.0" standalone="no"?><!DOCTYPE svg PUBLIC "-//W3C//DTD SVG 1.1//EN" "http://www.w3.org/Graphics/SVG/1.1/DTD/svg11.dtd"><svg t="1597033207413" class="icon" viewBox="0 0 1024 1024" version="1.1" xmlns="http://www.w3.org/2000/svg" p-id="5778" data-darkreader-inline-fill="" width="32" height="32" xmlns:xlink="http://www.w3.org/1999/xlink"><defs><style type="text/css">[data-darkreader-inline-fill] { fill: var(--darkreader-inline-fill)  !important; }
* {  }
</style></defs><path d="M149.949217 871.201391a41.984 41.984 0 0 1-42.162087-41.716869v-383.243131h674.860522v107.297392c21.949217 1.914435 43.141565 6.41113 63.265391 13.267478v-184.32H44.521739v446.998261C44.521739 887.718957 91.714783 934.956522 149.949217 934.956522h360.492522a273.274435 273.274435 0 0 1-18.69913-63.755131H149.904696zM761.544348 382.486261h-63.22087V318.775652c0-143.36-118.828522-254.976-253.106087-254.976-137.572174 0-253.061565 116.335304-253.061565 254.976v63.755131h-63.220869V318.775652C128.890435 144.962783 272.695652 0 445.217391 0c170.295652 0 316.326957 139.041391 316.326957 318.775652V382.441739z" fill="#84c6f1" p-id="5779" data-darkreader-inline-fill="" style="--darkreader-inline-fill:#0e4e78; user-select: auto;"></path><path d="M432.083478 534.26087h20.925218c17.318957 0 31.343304 13.890783 31.343304 31.031652v144.918261a30.898087 30.898087 0 0 1-9.216 21.993739 31.521391 31.521391 0 0 1-22.171826 9.082435h-20.925217a31.521391 31.521391 0 0 1-22.171827-9.082435 30.898087 30.898087 0 0 1-9.171478-21.993739v-144.87374c0-17.185391 14.06887-31.076174 31.387826-31.076173z m321.758609 42.918956c-124.66087 0-225.636174 100.040348-225.636174 223.410087S629.270261 1024 753.842087 1024C878.458435 1024 979.478261 923.959652 979.478261 800.589913s-101.019826-223.410087-225.636174-223.410087z m2.31513 385.869913c-94.47513 0-171.008-75.776-171.008-169.360696 0-93.495652 76.577391-169.316174 171.008-169.316173 94.47513 0 171.052522 75.776 171.052522 169.316173 0 93.584696-76.577391 169.360696-171.052522 169.360696z" fill="#84c6f1" p-id="5780" data-darkreader-inline-fill="" style="--darkreader-inline-fill:#0e4e78; user-select: auto;"></path><path d="M756.869565 890.434783h22.26087v22.260869H756.869565zM756.869565 845.913043h44.521739v44.52174h-44.521739zM739.283478 712.347826c-37.487304-0.534261-61.306435 15.716174-71.457391 48.751304h16.205913c8.904348-26.89113 27.291826-40.069565 55.206957-39.490782 27.336348 1.647304 42.295652 13.979826 44.833391 36.953043 1.914435 12.911304-8.592696 25.778087-31.432348 38.64487-19.72313 11.219478-29.250783 24.665043-28.582957 40.292174V845.913043h16.161392v-7.568695c-0.623304-13.979826 6.366609-24.932174 20.969739-32.723478 28.582957-13.445565 41.939478-29.696 40.025043-48.751305-3.205565-27.959652-23.81913-42.829913-61.929739-44.521739z" fill="#84c6f1" p-id="5781" data-darkreader-inline-fill="" style="--darkreader-inline-fill:#0e4e78; user-select: auto;"></path><path d="M778.551652 890.434783h-44.699826v-21.99374c-0.890435-22.127304 11.753739-41.360696 37.62087-56.676173 13.979826-8.236522 30.274783-20.48 28.582956-32.367305-2.226087-20.836174-13.267478-30.185739-36.953043-31.699478h-0.890435c-14.825739 0-35.706435 3.784348-46.035478 36.418783l-2.849392 8.904347H667.826087l4.585739-15.582608c12.55513-42.562783 43.542261-65.090783 89.666783-65.090783h2.226087c62.018783 2.849391 78.402783 35.439304 81.341217 62.241391 2.626783 27.336348-14.60313 50.176-51.110956 68.118261-11.130435 6.233043-16.473043 14.692174-15.983305 26.178783V890.434783z" fill="#84c6f1" p-id="5782" data-darkreader-inline-fill="" style="--darkreader-inline-fill:#0e4e78; user-select: auto;"></path></svg>