<?xml version="1.0" standalone="no"?><!DOCTYPE svg PUBLIC "-//W3C//DTD SVG 1.1//EN" "http://www.w3.org/Graphics/SVG/1.1/DTD/svg11.dtd"><svg t="1597279589506" class="icon" viewBox="0 0 1024 1024" version="1.1" xmlns="http://www.w3.org/2000/svg" p-id="3835" xmlns:xlink="http://www.w3.org/1999/xlink" width="32" height="32"><defs><style type="text/css"></style></defs><path d="M768 0H261.973333A134.826667 134.826667 0 0 0 128 134.826667v788.48a94.72 94.72 0 0 0 15.36 52.053333 100.693333 100.693333 0 0 0 138.24 33.28l218.453333-133.12a33.28 33.28 0 0 1 34.986667 0l211.626667 131.413333a94.72 94.72 0 0 0 52.053333 15.36 101.546667 101.546667 0 0 0 100.693333-100.693333V134.826667A132.266667 132.266667 0 0 0 768 0z m70.826667 921.6a36.693333 36.693333 0 0 1-36.693334 33.28 28.16 28.16 0 0 1-17.066666-5.12L571.733333 819.2a97.28 97.28 0 0 0-104.106666 0l-218.453334 133.12a31.573333 31.573333 0 0 1-46.08-13.653333 32.426667 32.426667 0 0 1-5.12-17.066667V134.826667a67.413333 67.413333 0 0 1 67.413334-67.413334H768a67.413333 67.413333 0 0 1 67.413333 67.413334v786.773333z" fill="#e8989a" p-id="3836" style="user-select: auto;"></path><path d="M629.76 225.28H396.8a29.013333 29.013333 0 0 0 0 58.026667h232.96a29.013333 29.013333 0 1 0 0-58.026667z" fill="#e8989a" p-id="3837" style="user-select: auto;"></path></svg>