<?xml version="1.0" standalone="no"?><!DOCTYPE svg PUBLIC "-//W3C//DTD SVG 1.1//EN" "http://www.w3.org/Graphics/SVG/1.1/DTD/svg11.dtd"><svg t="1597034493173" class="icon" viewBox="0 0 1024 1024" version="1.1" xmlns="http://www.w3.org/2000/svg" p-id="18128" data-darkreader-inline-fill="" xmlns:xlink="http://www.w3.org/1999/xlink" width="32" height="32"><defs><style type="text/css">[data-darkreader-inline-fill] { fill: var(--darkreader-inline-fill)  !important; }
* {  }
</style></defs><path d="M264.906105 482.694737 263.343158 478.827789 262.575158 473.775158 261.793684 470.676211 261.793684 467.173053 261.793684 462.915368 261.793684 459.034947 262.965895 454.373053 264.124632 449.333895 266.064842 444.294737 268.005053 438.460632 271.117474 432.653474 275.388632 426.832842 275.388632 422.561684 275.779368 418.681263 276.547368 413.251368 278.110316 407.430737 279.659789 400.842105 281.209263 397.729684 282.758737 395.008 284.698947 391.909053 286.652632 389.968842 286.652632 385.697684 286.652632 381.049263 286.652632 375.228632 288.202105 367.467789 289.374316 358.534737 291.691789 348.065684 294.413474 337.205895 296.744421 330.994526 299.075368 324.405895 301.406316 318.585263 304.518737 311.983158 307.617684 304.613053 311.120842 298.010947 315.001263 290.640842 319.663158 283.661474 321.994105 279.390316 324.715789 275.900632 329.754947 268.530526 335.198316 260.769684 341.409684 253.008842 348.011789 245.638737 355.004632 238.268632 362.765474 230.507789 371.698526 221.965474 377.532632 216.926316 384.525474 211.496421 391.504842 206.834526 399.279158 202.186105 406.662737 198.305684 414.814316 194.802526 423.747368 190.544842 432.289684 187.823158 441.222737 184.724211 450.533053 181.611789 459.856842 179.671579 469.962105 177.731368 480.053895 175.791158 489.768421 174.632421 499.860211 173.473684 510.356211 172.692211 520.448 172.692211 530.930526 172.692211 541.803789 172.692211 552.286316 173.850947 562.782316 175.413895 573.264842 176.572632 583.370105 178.903579 593.852632 180.843789 603.567158 183.565474 614.440421 186.273684 624.141474 189.763368 633.465263 194.034526 643.570526 198.305684 652.880842 202.563368 661.813895 208.006737 670.746947 213.436632 678.130526 218.866526 681.620211 221.574737 685.123368 223.905684 692.102737 229.726316 698.327579 235.546947 704.148211 241.367579 709.968842 247.969684 714.630737 254.167579 720.060632 260.769684 723.954526 268.139789 728.225684 274.351158 732.106105 281.721263 735.609263 287.932632 741.820632 301.123368 744.542316 308.102737 746.873263 314.691368 749.190737 321.684211 751.144421 328.272842 752.693895 333.716211 754.243368 340.695579 757.746526 352.336842 759.686737 362.805895 760.858947 372.897684 762.017684 381.049263 763.957895 393.067789 764.348632 395.008 765.898105 397.338947 769.792 403.550316 772.122947 408.198737 774.453895 412.469895 777.162105 417.522526 779.883789 422.952421 781.433263 429.163789 782.982737 435.375158 784.545684 441.963789 784.936421 445.453474 785.704421 449.333895 785.704421 452.823579 784.936421 456.313263 784.936421 460.584421 784.154947 464.855579 782.214737 472.993684 779.883789 477.264842 778.334316 481.536 778.334316 482.694737 779.102316 484.244211 781.433263 487.747368 790.743579 501.328842 797.749895 511.420632 801.239579 518.4 805.901474 525.756632 810.172632 533.921684 814.834526 542.841263 819.496421 552.542316 824.939789 563.792842 828.038737 570.772211 830.760421 577.374316 833.091368 584.353684 835.422316 590.942316 837.349053 597.557895 838.912 603.755789 841.256421 615.774316 843.183158 628.197053 844.355368 639.447579 844.355368 645.658947 844.355368 650.320842 844.355368 654.969263 843.573895 660.412632 842.401684 670.100211 840.474947 678.629053 838.130526 686.389895 837.349053 689.502316 835.422316 693.382737 833.872842 696.090947 831.919158 699.203368 830.369684 701.520842 828.038737 704.256 826.098526 706.182737 823.767579 708.122947 821.436632 709.295158 819.105684 710.453895 817.165474 710.844632 815.602526 710.844632 814.443789 710.844632 812.503579 710.453895 809.013895 708.513684 807.464421 707.354947 805.510737 706.182737 803.961263 704.633263 802.007579 702.693053 798.908632 699.203368 795.418947 694.541474 792.32 689.502316 789.598316 685.621895 786.863158 680.96 782.982737 672.821895 778.334316 664.279579 777.930105 663.888842 777.162105 663.888842 775.599158 665.451789 774.453895 667.782737 772.500211 670.490947 769.792 678.629053 765.116632 690.270316 759.296 704.633263 755.024842 711.612632 750.362947 718.982737 744.933053 727.525053 739.098947 735.285895 736.377263 739.152842 732.901053 743.033263 724.345263 751.198316 725.113263 751.979789 726.285474 753.125053 730.556632 755.456 747.641263 763.607579 755.024842 767.878737 762.017684 772.149895 769.010526 777.189053 775.599158 782.618947 778.334316 784.949895 780.651789 787.658105 782.982737 790.757053 784.936421 794.260211 786.095158 796.968421 787.267368 800.471579 788.035368 803.570526 788.426105 807.060211 788.035368 809.391158 788.035368 811.722105 787.267368 814.053053 786.095158 816.370526 785.704421 818.310737 784.545684 820.250947 781.433263 824.522105 778.334316 828.011789 776.380632 830.342737 774.453895 832.282947 769.792 835.772632 764.348632 838.885053 758.528 841.593263 752.693895 844.314947 745.714526 847.023158 742.211368 848.181895 738.708211 848.963368 730.947368 850.903579 722.795789 852.843789 714.630737 854.393263 705.697684 855.942737 696.387368 856.346947 687.063579 857.505684 677.739789 857.505684 667.648 857.505684 657.542737 857.505684 647.046737 856.724211 637.359158 855.942737 626.472421 854.393263 615.989895 853.234526 605.116632 851.685053 594.243368 848.963368 583.747368 847.023158 573.264842 844.314947 562.782316 840.434526 552.286316 837.335579 546.856421 835.381895 541.803789 833.441684 538.691368 832.282947 535.592421 831.892211 531.712 831.892211 527.050105 831.892211 516.944842 831.124211 511.514947 830.342737 505.303579 829.965474 501.032421 833.441684 495.198316 837.335579 487.437474 840.811789 478.895158 845.864421 473.451789 848.181895 468.021895 850.135579 455.976421 855.174737 449.374316 856.724211 442.381474 858.664421 433.071158 860.604632 427.237053 860.995368 420.634947 861.386105 414.032842 862.154105 406.662737 862.558316 399.279158 862.558316 391.504842 862.558316 375.201684 862.558316 357.335579 862.154105 340.237474 860.604632 331.695158 859.445895 323.152842 857.896421 315.001263 856.724211 306.836211 855.174737 299.075368 852.843789 291.691789 850.903579 284.698947 848.181895 278.110316 845.864421 272.276211 842.765474 266.846316 839.653053 261.793684 835.772632 259.853474 833.832421 257.522526 831.892211 255.973053 829.965474 254.410105 827.634526 252.860632 825.303579 251.701895 822.972632 250.138947 818.310737 249.357474 815.602526 248.589474 812.880842 248.589474 810.549895 249.357474 807.450947 249.357474 804.742737 250.138947 802.007579 250.138947 800.080842 250.138947 796.200421 250.138947 793.088 251.701895 789.611789 252.860632 786.108632 254.800842 781.837474 256.350316 780.288 257.522526 778.361263 261.012211 774.467368 263.343158 772.149895 266.064842 770.977684 268.005053 769.037474 271.885474 767.878737 274.607158 766.329263 278.110316 764.375579 282.381474 763.230316 286.261895 762.058105 290.923789 760.899368 295.585684 760.117895 301.015579 759.727158 306.836211 758.945684 308.399158 758.568421 308.399158 758.568421 309.167158 757.786947 309.167158 757.396211 308.399158 755.846737 305.286737 754.283789 297.525895 747.695158 292.473263 743.814737 286.261895 738.398316 280.427789 732.564211 274.229895 725.194105 266.846316 716.651789 264.124632 712.003368 260.621474 707.354947 257.522526 701.925053 254.800842 696.090947 250.920421 690.270316 248.589474 684.072421 245.867789 677.470316 242.768842 670.490947 240.828632 663.498105 238.874947 654.969263 238.093474 654.578526 237.716211 654.578526 237.325474 654.201263 236.544 654.201263 235.385263 654.578526 234.603789 654.969263 233.822316 656.532211 233.445053 658.081684 233.054316 659.631158 231.882105 662.339368 228.392421 668.550737 226.452211 672.431158 223.730526 675.543579 220.631579 679.801263 217.128421 684.072421 213.625263 687.952842 209.367579 691.833263 205.473684 695.309474 201.202526 698.044632 196.540632 701.143579 191.892211 702.693053 186.448842 704.256 181.396211 704.633263 181.018947 704.633263 180.237474 704.633263 179.078737 704.256 177.906526 701.925053 176.343579 701.143579 174.403368 696.090947 173.244632 693.382737 171.695158 689.502316 170.913684 685.621895 170.132211 681.741474 168.582737 672.821895 167.814737 667.782737 167.814737 662.339368 167.814737 650.320842 168.582737 637.507368 169.364211 630.905263 170.913684 624.316632 171.695158 616.946526 173.635368 610.357895 175.966316 602.597053 178.283789 594.822737 181.396211 587.061895 184.117895 579.691789 188.389053 571.930947 191.892211 563.792842 196.540632 556.032 201.984 547.880421 207.036632 540.510316 212.857263 531.968 217.519158 526.160842 223.730526 519.572211 229.941895 512.956632 233.054316 509.857684 236.544 506.368 241.596632 501.706105 247.026526 497.057684 255.973053 489.296842 262.575158 484.634947Z" p-id="18129" style="user-select: auto; --darkreader-inline-fill:#0e78af;" fill="#1296db" data-darkreader-inline-fill=""></path></svg>