<?xml version="1.0" standalone="no"?><!DOCTYPE svg PUBLIC "-//W3C//DTD SVG 1.1//EN" "http://www.w3.org/Graphics/SVG/1.1/DTD/svg11.dtd"><svg t="1597118617958" class="icon" viewBox="0 0 1024 1024" version="1.1" xmlns="http://www.w3.org/2000/svg" p-id="9497" xmlns:xlink="http://www.w3.org/1999/xlink" width="32" height="32"><defs><style type="text/css"></style></defs><path d="M853.728 755.424q0 22.848-16 38.848L760 872q-16 16-38.848 16t-38.848-16l-168-168-168 168q-16 16-38.848 16t-38.848-16l-77.728-77.728q-16-16-16-38.848t16-38.848l168-168-168-168q-16-16-16-38.848t16-38.848l77.728-77.728q16-16 38.848-16t38.848 16l168 168 168-168q16-16 38.848-16t38.848 16l77.728 77.728q16 16 16 38.848t-16 38.848l-168 168 168 168q16 16 16 38.848z" p-id="9498" fill="#d81e06" style="user-select: auto;"></path></svg>