<?xml version="1.0" standalone="no"?><!DOCTYPE svg PUBLIC "-//W3C//DTD SVG 1.1//EN" "http://www.w3.org/Graphics/SVG/1.1/DTD/svg11.dtd"><svg t="1597648249885" class="icon" viewBox="0 0 1024 1024" version="1.1" xmlns="http://www.w3.org/2000/svg" p-id="2671" xmlns:xlink="http://www.w3.org/1999/xlink" width="32" height="32"><defs><style type="text/css"></style></defs><path d="M288.971 576.719c-30.775 0-55.763 25.882-55.763 57.84 0 31.941 24.987 57.824 55.763 57.824 30.817 0 55.762-25.883 55.762-57.824C344.733 602.601 319.788 576.719 288.971 576.719L288.971 576.719 288.971 576.719zM512.02 576.719c-30.818 0-55.762 25.882-55.762 57.84 0 31.941 24.943 57.824 55.762 57.824 30.774 0 55.719-25.883 55.719-57.824C567.74 602.601 542.795 576.719 512.02 576.719L512.02 576.719 512.02 576.719zM735.028 576.719c-30.773 0-55.762 25.882-55.762 57.84 0 31.941 24.988 57.824 55.762 57.824 30.775 0 55.763-25.883 55.763-57.824C790.789 602.601 765.803 576.719 735.028 576.719L735.028 576.719 735.028 576.719zM177.447 929.467l669.064 0c61.593 0 111.523-51.8 111.523-115.69L958.034 380.01c0-63.873-51.027-122.747-114.023-122.747L674.048 257.263C644.457 225.698 521.841 98.787 521.841 98.787c-5.437-5.674-14.247-5.674-19.683 0 0 0-89.782 101.749-148.263 158.476L179.988 257.263c-62.997 0-114.023 58.874-114.023 122.747l0 433.766C65.964 877.667 115.896 929.467 177.447 929.467L177.447 929.467 177.447 929.467zM121.727 380.01c0-31.931 26.785-65.45 58.261-65.45l171.015 0c20.735 0 39.368-21.28 39.368-21.28l120.073-124.571L630.516 293.28c0 0 22.841 21.28 42.436 21.28l171.06 0c31.477 0 58.262 33.52 58.262 65.45l0 433.765c0 31.958-24.944 57.841-55.762 57.841L177.447 871.616c-30.774 0-55.719-25.883-55.719-57.841L121.727 380.01 121.727 380.01 121.727 380.01z" p-id="2672" fill="#707070" style="user-select: auto;"></path></svg>