<?xml version="1.0" standalone="no"?><!DOCTYPE svg PUBLIC "-//W3C//DTD SVG 1.1//EN" "http://www.w3.org/Graphics/SVG/1.1/DTD/svg11.dtd"><svg t="1597116716471" class="icon" viewBox="0 0 1024 1024" version="1.1" xmlns="http://www.w3.org/2000/svg" p-id="4689" xmlns:xlink="http://www.w3.org/1999/xlink" width="32" height="32"><defs><style type="text/css"></style></defs><path d="M539.927 502.691h-72.145c-93.091 0-167.564 74.473-167.564 167.564v104.727c0 4.655 4.655 9.309 9.309 9.309h388.655c4.655 0 9.309-4.655 9.309-9.309V670.255c0-90.764-74.473-167.564-167.564-167.564z" fill="#FFE255" p-id="4690" style="user-select: auto;"></path><path d="M684.218 581.818c16.291 25.6 25.6 55.855 25.6 90.764v104.727c0 4.655-4.655 9.309-9.309 9.309h97.745c4.655 0 6.982-2.327 6.982-6.982V716.8c0-72.145-53.527-128-121.018-134.982z" fill="#31D5A1" p-id="4691" style="user-select: auto;"></path><path d="M798.255 798.255H700.51c-6.982 0-11.636-4.655-11.636-11.636 0-4.655 4.655-9.309 9.309-11.636v-102.4c0-30.255-9.309-58.182-23.273-83.782-2.327-4.655-2.327-9.309 0-11.636 2.327-4.655 6.982-6.982 11.636-4.655 74.473 6.982 132.655 69.818 132.655 144.291v62.836c-2.327 9.309-9.309 18.618-20.945 18.618z m-76.8-23.273H793.6V716.8c0-55.855-37.236-102.4-88.436-116.364 11.636 23.273 16.291 48.873 16.291 74.473v100.073z" fill="#555555" p-id="4692" style="user-select: auto;"></path><path d="M744.727 409.6H570.182c-9.309 0-16.291 6.982-16.291 16.291v79.127c67.491 4.655 125.673 51.2 146.618 114.036 34.909-13.964 58.182-46.545 58.182-86.109V425.89c2.327-9.309-4.655-16.291-13.964-16.291z" fill="#FFFFFF" p-id="4693" style="user-select: auto;"></path><path d="M693.527 633.018l-4.655-11.636c-20.945-60.509-74.473-100.073-134.982-107.055h-11.636v-90.764c0-13.964 11.636-27.927 27.927-27.927h174.545c13.964 0 27.927 11.636 27.927 27.927v107.055c0 41.891-25.6 81.455-65.164 95.418l-13.964 6.982zM567.855 493.382c62.836 9.309 116.364 51.2 139.636 109.382 25.6-13.964 39.564-39.564 39.564-69.818V425.891c0-2.327-2.327-4.655-4.655-4.655H567.855c-2.327 0-4.655 2.327-4.655 4.655v67.491z" fill="#555555" p-id="4694" style="user-select: auto;"></path><path d="M791.273 349.091H600.437c-18.618 0-34.909 16.291-34.909 34.909v4.655h-11.636c-9.309 0-18.618 6.982-18.618 18.618v72.145c0 4.655 4.655 9.309 9.309 9.309h13.964c4.655 0 9.309-4.655 9.309-9.309V435.2h172.218c34.909 0 60.509-27.927 60.509-60.509v-13.964c0-9.309-4.655-11.636-9.309-11.636z" fill="#FFFFFF" p-id="4695" style="user-select: auto;"></path><path d="M558.545 498.036h-13.964a20.858 20.858 0 0 1-20.945-20.945v-72.145c0-16.291 13.964-30.255 30.255-30.255 4.655-23.273 23.273-39.564 46.545-39.564h190.836a20.858 20.858 0 0 1 20.945 20.945v16.291c0 39.564-32.582 72.145-72.145 72.145H579.49v32.582a20.858 20.858 0 0 1-20.945 20.945z m-9.309-23.272h6.982v-53.527h183.855c27.927 0 48.873-23.273 48.873-48.873v-11.636H600.437c-13.964 0-23.273 11.636-23.273 23.273v16.291h-23.273c-2.327 0-6.982 2.327-6.982 6.982v67.491z" fill="#555555" p-id="4696" style="user-select: auto;"></path><path d="M300.218 777.309V672.582c0-32.582 9.309-62.836 25.6-88.436-65.164 9.309-114.036 65.164-114.036 132.655v62.836c0 4.655 2.327 6.982 6.982 6.982h90.764c-4.655 0-9.309-4.655-9.309-9.309z" fill="#31D5A1" p-id="4697" style="user-select: auto;"></path><path d="M309.527 798.255h-90.764c-9.309 0-18.618-9.309-18.618-18.618v-62.836c0-72.145 53.527-132.655 123.345-144.291 4.655 0 9.309 2.327 11.636 4.655 2.327 4.655 2.327 9.309 0 11.636-16.291 25.6-23.273 53.527-23.273 81.455v102.4c4.655 2.327 9.309 6.982 9.309 11.636 0 6.982-4.655 13.964-11.636 13.964z m-86.109-23.273h65.164v-102.4c0-25.6 4.655-48.873 13.964-72.145-46.545 16.291-79.127 62.836-79.127 114.036v60.509z" fill="#555555" p-id="4698" style="user-select: auto;"></path><path d="M463.127 502.691v-79.127c0-9.309-6.982-16.291-16.291-16.291H272.291c-9.309 0-16.291 6.982-16.291 16.291v107.055c0 37.236 20.945 67.491 53.527 83.782 23.273-62.836 83.782-107.055 153.6-111.709z" fill="#FFFFFF" p-id="4699" style="user-select: auto;"></path><path d="M316.509 630.691l-11.636-4.655c-37.236-16.291-60.509-53.527-60.509-93.091V425.89c0-13.964 11.636-27.927 27.927-27.927h174.545c13.964 0 27.927 11.636 27.927 27.927v90.764h-11.636c-65.164 2.327-118.691 44.218-141.964 104.727l-4.655 9.309z m-44.218-209.455c-2.327 0-4.655 2.327-4.655 4.655v107.055c0 27.927 13.964 51.2 34.909 67.491 25.6-58.182 81.455-100.073 146.618-104.727v-67.491c0-2.327-2.327-4.655-4.655-4.655H272.29z" fill="#555555" p-id="4700" style="user-select: auto;"></path><path d="M493.382 349.091H302.546c-18.618 0-34.909 16.291-34.909 34.909v4.655h-11.636c-9.309 0-18.618 6.982-18.618 18.618v72.145c0 4.655 4.655 9.309 9.309 9.309h13.964c4.655 0 9.309-4.655 9.309-9.309V435.2h172.218c34.909 0 60.509-27.927 60.509-60.509v-13.964c0-9.309-2.327-11.636-9.309-11.636z" fill="#FFFFFF" p-id="4701" style="user-select: auto;"></path><path d="M260.655 498.036h-13.964a20.858 20.858 0 0 1-20.945-20.945v-72.145c0-16.291 13.964-30.255 30.255-30.255 4.655-23.273 23.273-39.564 46.545-39.564h190.836a20.858 20.858 0 0 1 20.945 20.945v16.291c0 39.564-32.582 72.145-72.145 72.145H281.6v32.582a20.858 20.858 0 0 1-20.945 20.945z m-9.31-23.272h6.982v-53.527h183.855c27.927 0 48.873-23.273 48.873-48.873v-11.636H302.546c-13.964 0-23.273 11.636-23.273 23.273v16.291H256c-2.327 0-6.982 2.327-6.982 6.982v67.491zM698.182 798.255H472.437c-6.982 0-11.636-4.655-11.636-11.636s4.655-11.636 11.636-11.636h221.091v-102.4c0-86.109-69.818-155.927-155.927-155.927h-72.145c-86.109 0-155.927 69.818-155.927 155.927v102.4h44.218c6.982 0 11.636 4.655 11.636 11.636s-4.655 11.636-11.636 11.636h-46.545a20.858 20.858 0 0 1-20.945-20.945V672.583c0-100.073 81.455-179.2 179.2-179.2h72.145c100.073 0 179.2 81.455 179.2 179.2V777.31c2.327 11.636-6.982 20.945-18.618 20.945z" fill="#555555" p-id="4702" style="user-select: auto;"></path><path d="M423.564 798.255h-25.6c-6.982 0-11.636-4.655-11.636-11.636s4.655-11.636 11.636-11.636h25.6c6.982 0 11.636 4.655 11.636 11.636s-4.655 11.636-11.636 11.636z" fill="#555555" p-id="4703" style="user-select: auto;"></path><path d="M521.309 607.418l25.6-51.2h-76.8l27.927 53.527-30.255 123.345 41.891 53.527 39.564-53.527z" fill="#FFFFFF" p-id="4704" style="user-select: auto;"></path><path d="M509.673 798.255c-4.655 0-6.982-2.327-9.309-4.655L460.8 740.073c-2.327-2.327-2.327-6.982-2.327-9.309L486.4 609.746l-25.6-46.545c-2.327-4.655-2.327-6.982 0-11.636s6.982-4.655 9.309-4.655h76.8c4.655 0 6.982 2.327 9.309 4.655 2.327 4.655 2.327 6.982 0 11.636l-25.6 46.545 27.927 121.018c0 2.327 0 6.982-2.327 9.309L516.654 793.6c0 2.327-4.655 4.655-6.982 4.655z m-27.928-67.491L509.672 768l27.927-37.236-27.927-121.018v2.327l-27.927 118.691z m6.982-162.909l18.618 34.909v2.327c0-2.327 0-2.327 2.327-4.655l18.618-32.582h-39.564z" fill="#555555" p-id="4705" style="user-select: auto;"></path><path d="M628.364 265.309H384c-11.636 0-18.618 9.309-18.618 18.618v160.582c0 30.255 11.636 55.855 27.927 76.8 20.945 25.6 53.527 41.891 88.436 41.891h46.545c34.909 0 67.491-16.291 88.436-41.891 18.618-20.945 27.927-46.545 27.927-76.8V283.927c2.327-9.309-6.982-18.618-16.291-18.618z" fill="#FFFFFF" p-id="4706" style="user-select: auto;"></path><path d="M528.291 574.836h-46.545c-37.236 0-72.145-16.291-97.745-44.218-20.945-23.273-32.582-53.527-32.582-83.782V286.254c0-16.291 13.964-30.255 30.255-30.255h246.691c16.291 0 30.255 13.964 30.255 30.255v160.582c0 30.255-11.636 60.509-32.582 83.782-23.273 27.927-60.509 44.218-97.745 44.218zM384 276.945c-4.655 0-6.982 4.655-6.982 6.982v160.582c0 25.6 9.309 48.873 25.6 69.818 20.945 23.273 48.873 37.236 79.127 37.236h46.545c30.255 0 60.509-13.964 79.127-37.236 16.291-20.945 25.6-44.218 25.6-69.818V283.927c0-4.655-4.655-6.982-6.982-6.982H383.999z" fill="#555555" p-id="4707" style="user-select: auto;"></path><path d="M691.2 181.527H425.891c-27.927 0-48.873 20.945-48.873 48.873v6.982h-16.291c-13.964 0-23.273 11.636-23.273 23.273v100.073c0 6.982 4.655 11.636 11.636 11.636h18.618c6.982 0 11.636-4.655 11.636-11.636v-62.836h237.382c46.545 0 83.782-37.236 83.782-83.782v-20.945c2.327-6.982-2.327-11.636-9.309-11.636z" fill="#FFE255" p-id="4708" style="user-select: auto;"></path><path d="M367.709 384h-18.618c-13.964 0-23.273-11.636-23.273-23.273V260.654c0-20.945 16.291-34.909 34.909-34.909h4.655c2.327-30.255 27.927-53.527 60.509-53.527H691.2c13.964 0 23.273 11.636 23.273 23.273v20.945c0 53.527-44.218 95.418-95.418 95.418H393.31v51.2c-2.327 11.636-11.636 20.945-25.6 20.945z m-4.654-137.309c-6.982 0-11.636 4.655-11.636 11.636V358.4h18.618v-74.473h249.018c39.564 0 72.145-32.582 72.145-72.145v-20.945H425.891c-20.945 0-37.236 16.291-37.236 37.236v18.618h-25.6z" fill="#555555" p-id="4709" style="user-select: auto;"></path><path d="M509.673 498.036c11.636 0 23.273-6.982 27.927-18.618h-55.855c4.655 11.636 13.964 18.618 27.927 18.618z" fill="#FFFFFF" p-id="4710" style="user-select: auto;"></path><path d="M509.673 509.673c-16.291 0-32.582-9.309-39.564-25.6l-6.982-16.291h90.764l-6.982 16.291c-6.982 16.291-20.945 25.6-37.236 25.6z" fill="#555555" p-id="4711" style="user-select: auto;"></path><path d="M784.291 265.309c-2.327 0-6.982 0-9.309-2.327-4.655-4.655-4.655-11.636 0-16.291l65.164-65.164c4.655-4.655 11.636-4.655 16.291 0s4.655 11.636 0 16.291l-65.164 65.164s-2.327 2.327-6.982 2.327z" fill="#6EE5D9" p-id="4712" style="user-select: auto;"></path><path d="M849.455 265.309c-2.327 0-6.982 0-9.309-2.327l-65.164-65.164c-4.655-4.655-4.655-11.636 0-16.291s11.636-4.655 16.291 0l65.164 65.164c4.655 4.655 4.655 11.636 0 16.291 0 0-4.655 2.327-6.982 2.327z" fill="#6EE5D9" p-id="4713" style="user-select: auto;"></path><path d="M121.018 372.364c-4.655 0-6.982-2.327-9.309-4.655-4.655-4.655-4.655-13.964 0-18.618l65.164-65.164c4.655-4.655 13.964-4.655 18.618 0s4.655 13.964 0 18.618l-65.164 65.164c-2.327 4.655-4.655 4.655-9.309 4.655z" fill="#FFEC40" p-id="4714" style="user-select: auto;"></path><path d="M186.182 372.364c-4.655 0-6.982-2.327-9.309-4.655l-65.164-65.164c-4.655-4.655-4.655-13.964 0-18.618s13.964-4.655 18.618 0l65.164 65.164c4.655 4.655 4.655 13.964 0 18.618-2.327 4.655-4.655 4.655-9.309 4.655z" fill="#FFEC40" p-id="4715" style="user-select: auto;"></path><path d="M909.964 479.418l-44.218 18.618c-6.982 2.327-6.982 11.636-2.327 16.291l37.236 27.927c6.982 4.655 13.964 0 16.291-6.982l4.655-46.545c2.327-6.982-4.655-13.964-11.636-9.309z" fill="#64BFF2" p-id="4716" style="user-select: auto;"></path></svg>