<?xml version="1.0" standalone="no"?><!DOCTYPE svg PUBLIC "-//W3C//DTD SVG 1.1//EN" "http://www.w3.org/Graphics/SVG/1.1/DTD/svg11.dtd"><svg t="1597285768818" class="icon" viewBox="0 0 1024 1024" version="1.1" xmlns="http://www.w3.org/2000/svg" p-id="5463" xmlns:xlink="http://www.w3.org/1999/xlink" width="32" height="32"><defs><style type="text/css"></style></defs><path d="" p-id="5464" style="user-select: auto;" fill="#8a8a8a"></path><path d="M124.168 417.199c-54.115 0-97.983 43.868-97.983 97.983 0 54.111 43.868 97.98 97.983 97.98 54.111 0 97.983-43.868 97.983-97.98 0-54.114-43.871-97.983-97.983-97.983zM516.093 417.199c-54.114 0-97.983 43.868-97.983 97.983 0 54.111 43.868 97.98 97.983 97.98 54.115 0 97.983-43.868 97.983-97.98 0-54.114-43.868-97.983-97.983-97.983zM908.016 417.199c-54.114 0-97.983 43.868-97.983 97.983 0 54.111 43.868 97.98 97.983 97.98 54.115 0 97.983-43.868 97.983-97.98-0.001-54.114-43.866-97.983-97.983-97.983z" p-id="5465" style="user-select: auto;" fill="#8a8a8a"></path></svg>