<?xml version="1.0" standalone="no"?><!DOCTYPE svg PUBLIC "-//W3C//DTD SVG 1.1//EN" "http://www.w3.org/Graphics/SVG/1.1/DTD/svg11.dtd"><svg t="1597034521847" class="icon" viewBox="0 0 1308 1024" version="1.1" xmlns="http://www.w3.org/2000/svg" p-id="19553" data-darkreader-inline-fill="" data-spm-anchor-id="a313x.7781069.0.i81" xmlns:xlink="http://www.w3.org/1999/xlink" width="40.875" height="32"><defs><style type="text/css">[data-darkreader-inline-fill] { fill: var(--darkreader-inline-fill)  !important; }
* {  }
</style></defs><path d="M1075.2 412.444444c17.066667 0 31.288889-11.377778 34.133333-28.444444v-2.844444c25.6-230.4-193.422222-190.577778-193.422222-190.577778-19.911111 0-34.133333 14.222222-34.133333 34.133333s17.066667 34.133333 34.133333 34.133333c159.288889-34.133333 122.311111 119.466667 122.311111 119.466667 0 19.911111 17.066667 34.133333 36.977778 34.133333z" fill="#E57B1E" p-id="19554" data-darkreader-inline-fill="" style="--darkreader-inline-fill:#b56015; user-select: auto;"></path><path d="M1049.6 8.533333c-76.8-17.066667-153.6-2.844444-176.355556 2.844445-2.844444 0-2.844444 2.844444-5.688888 2.844444-22.755556 5.688889-36.977778 25.6-36.977778 48.355556 0 28.444444 22.755556 51.2 51.2 51.2 0 0 28.444444-2.844444 45.511111-11.377778 19.911111-8.533333 176.355556-5.688889 253.155555 122.311111 42.666667 93.866667 19.911111 156.444444 17.066667 167.822222 0 0-11.377778 25.6-11.377778 48.355556 0 28.444444 22.755556 45.511111 51.2 45.511111 22.755556 0 42.666667-2.844444 48.355556-42.666667 85.333333-275.911111-102.4-403.911111-236.088889-435.2z" fill="#E57B1E" p-id="19555" data-darkreader-inline-fill="" style="--darkreader-inline-fill:#b56015; user-select: auto;"></path><path d="M969.955556 497.777778c-51.2-8.533333-25.6-36.977778-25.6-36.977778s48.355556-79.644444-8.533334-139.377778c-73.955556-71.111111-253.155556 8.533333-253.155555 8.533334-68.266667 19.911111-51.2-8.533333-39.822223-59.733334 0-59.733333-19.911111-164.977778-204.8-102.4s-341.333333 275.911111-341.333333 275.911111c-108.088889 142.222222-93.866667 253.155556-93.866667 253.155556 28.444444 241.777778 290.133333 310.044444 494.933334 324.266667 216.177778 17.066667 506.311111-73.955556 594.488889-256 88.177778-184.888889-71.111111-256-122.311111-267.377778zM512 952.888889c-213.333333 8.533333-386.844444-93.866667-386.844444-236.088889 0-139.377778 173.511111-253.155556 386.844444-261.688889 213.333333-8.533333 386.844444 76.8 386.844444 216.177778 2.844444 142.222222-170.666667 273.066667-386.844444 281.6z" fill="#D9251D" p-id="19556" data-darkreader-inline-fill="" style="--darkreader-inline-fill:#ae1e17; user-select: auto;"></path><path d="M469.333333 548.977778c-216.177778 25.6-190.577778 221.866667-190.577777 221.866666s-2.844444 62.577778 56.888888 93.866667c125.155556 68.266667 256 25.6 321.422223-56.888889 68.266667-82.488889 28.444444-284.444444-187.733334-258.844444zM415.288889 824.888889c-39.822222 5.688889-73.955556-17.066667-73.955556-51.2 0-31.288889 28.444444-68.266667 68.266667-71.111111 45.511111-5.688889 76.8 22.755556 76.8 54.044444 2.844444 34.133333-31.288889 65.422222-71.111111 68.266667z m128-105.244445c-14.222222 8.533333-31.288889 8.533333-36.977778-2.844444-8.533333-11.377778-5.688889-31.288889 8.533333-39.822222 17.066667-11.377778 31.288889-8.533333 39.822223 2.844444 5.688889 11.377778 2.844444 28.444444-11.377778 39.822222z" fill="#8a8a8a" p-id="19557" data-darkreader-inline-fill="" style="--darkreader-inline-fill:#5a6265; user-select: auto;" data-spm-anchor-id="a313x.7781069.0.i80" class="selected"></path></svg>