<?xml version="1.0" standalone="no"?><!DOCTYPE svg PUBLIC "-//W3C//DTD SVG 1.1//EN" "http://www.w3.org/Graphics/SVG/1.1/DTD/svg11.dtd"><svg t="1597126859420" class="icon" viewBox="0 0 1024 1024" version="1.1" xmlns="http://www.w3.org/2000/svg" p-id="12122" data-spm-anchor-id="a313x.7781069.0.i23" xmlns:xlink="http://www.w3.org/1999/xlink" width="32" height="32"><defs><style type="text/css"></style></defs><path d="M952.087273 145.92C938.472727 91.461818 863.162182 0 512 0 346.647273 0 226.513455 18.152727 154.949818 53.992727 75.962182 93.323636 69.818182 147.316364 69.818182 162.909091v309.527273a536.040727 536.040727 0 0 0 272.849454 466.618181l134.981819 75.869091a69.096727 69.096727 0 0 0 68.468363 0l134.981818-75.869091A536.040727 536.040727 0 0 0 954.181818 472.436364V162.909091a69.329455 69.329455 0 0 0-2.094545-16.989091zM884.363636 472.436364a465.198545 465.198545 0 0 1-237.381818 405.643636L512 954.181818l-134.981818-76.101818A465.198545 465.198545 0 0 1 139.636364 472.436364V162.909091s0-93.090909 372.363636-93.090909c349.090909 0 372.363636 93.090909 372.363636 93.090909v309.527273zM512 232.727273c-169.332364 0-280.436364 176.64-292.561455 196.654545a70.004364 70.004364 0 0 0 0 72.145455c12.101818 20.014545 123.159273 196.189091 292.282182 196.654545 169.890909 0 280.738909-176.64 292.840728-196.887273a69.818182 69.818182 0 0 0 0-71.912727C792.436364 409.367273 681.332364 232.727273 512 232.727273z m0.558545 395.636363H512c-134.725818-0.465455-232.727273-162.909091-232.727273-162.909091s98.001455-162.909091 232.727273-162.90909 232.727273 162.909091 232.727273 162.90909-97.745455 162.909091-232.168728 162.909091zM512 349.090909a116.363636 116.363636 0 1 0 116.363636 116.363636 116.363636 116.363636 0 0 0-116.363636-116.363636z m0 162.909091a46.545455 46.545455 0 1 1 46.545455-46.545455 46.545455 46.545455 0 0 1-46.545455 46.545455z" p-id="12123" data-spm-anchor-id="a313x.7781069.0.i24" class="" style="user-select: auto;" fill="#2c2c2c"></path></svg>