<?xml version="1.0" standalone="no"?><!DOCTYPE svg PUBLIC "-//W3C//DTD SVG 1.1//EN" "http://www.w3.org/Graphics/SVG/1.1/DTD/svg11.dtd"><svg t="1597118545517" class="icon" viewBox="0 0 1024 1024" version="1.1" xmlns="http://www.w3.org/2000/svg" p-id="7495" xmlns:xlink="http://www.w3.org/1999/xlink" width="32" height="32"><defs><style type="text/css"></style></defs><path d="M512 393.846154m-157.538462 0a157.538462 157.538462 0 1 0 315.076924 0 157.538462 157.538462 0 1 0-315.076924 0Z" fill="#FBD4D4" p-id="7496" style="user-select: auto;"></path><path d="M512 0L39.384615 156.750769v396.760616c0 161.476923 94.523077 304.443077 250.486154 373.602461L502.547692 1024l226.855385-101.454769C885.366154 857.954462 984.615385 710.340923 984.615385 544.295385V156.829538L512 0.078769V0z m378.092308 544.295385c0 129.181538-75.618462 244.499692-198.498462 295.148307l-189.046154 83.02277-174.867692-78.375385c-118.153846-50.806154-193.772308-166.045538-193.772308-290.658462V221.341538L512 96.886154l378.092308 124.455384v322.953847z" fill="#000000" p-id="7497" style="user-select: auto;"></path><path d="M512 189.124923c103.975385 0 189.046154 83.022769 189.046154 184.477539 0 87.670154-61.44 161.476923-141.784616 179.908923v235.283692H464.738462V553.511385c-80.344615-23.079385-141.784615-92.238769-141.784616-179.908923 0-101.454769 85.070769-184.477538 189.046154-184.477539z m0 92.16c-51.987692 0-94.523077 41.590154-94.523077 92.317539 0 50.806154 42.535385 92.317538 94.523077 92.317538 51.987692 0 94.523077-41.511385 94.523077-92.317538 0-50.727385-42.535385-92.238769-94.523077-92.23877z" fill="#000000" p-id="7498" style="user-select: auto;"></path><path d="M512 630.153846m39.384615 0l78.769231 0q39.384615 0 39.384616 39.384616l0 0q0 39.384615-39.384616 39.384615l-78.769231 0q-39.384615 0-39.384615-39.384615l0 0q0-39.384615 39.384615-39.384616Z" fill="#000000" p-id="7499" style="user-select: auto;"></path></svg>