<?xml version="1.0" standalone="no"?><!DOCTYPE svg PUBLIC "-//W3C//DTD SVG 1.1//EN" "http://www.w3.org/Graphics/SVG/1.1/DTD/svg11.dtd"><svg t="1597498529192" class="icon" viewBox="0 0 1024 1024" version="1.1" xmlns="http://www.w3.org/2000/svg" p-id="16351" width="18" height="18" xmlns:xlink="http://www.w3.org/1999/xlink"><defs><style type="text/css"></style></defs><path d="M897.939 71.662 605.268 71.662c-33.502 0-55.542 27.33-55.542 55.537l0 291.796c0 27.326 22.04 55.537 55.542 55.537l291.791 0c33.502 0 55.537-27.331 55.537-55.537L952.596 126.318C952.596 98.988 930.561 71.662 897.939 71.662zM905.552 407.767c0 7.372-5.733 18.835-18.838 18.835L615.612 426.602c-12.286 0-18.838-10.643-18.838-18.835L596.774 136.663c0-7.369 5.733-18.837 18.838-18.837l271.92 0.818c12.286 0 18.02 10.65 18.02 18.019L905.552 407.767z" p-id="16352" fill="#409eff"></path><path d="M897.939 71.662" p-id="16353" fill="#409eff"></path><path d="M897.939 551.227 605.268 551.227c-33.502 0-55.542 27.328-55.542 55.537l0 291.794c0 27.331 22.04 55.54 55.542 55.54l291.791 0c33.502 0 55.537-27.33 55.537-55.54L952.596 605.886C952.596 578.555 930.561 551.227 897.939 551.227zM905.552 887.332c0 7.371-5.731 18.838-18.84 18.838L615.614 906.17c-12.288 0-18.84-10.651-18.84-18.838L596.774 616.23c0-7.371 5.731-18.838 18.84-18.838l271.918 0 0 0.816c12.288 0 18.02 10.65 18.02 18.021L905.552 887.332z" p-id="16354" fill="#409eff"></path><path d="M420.438 70.451 127.766 70.451c-33.501 0-55.542 27.331-55.542 55.538l0 291.796c0 27.326 22.041 55.537 55.542 55.537l291.792 0c33.501 0 55.538-27.331 55.538-55.537L475.096 125.108C475.095 97.777 453.059 70.451 420.438 70.451zM428.05 406.557c0 7.372-5.733 18.835-18.837 18.835L138.11 425.392c-12.286 0-18.837-10.643-18.837-18.835L119.273 135.453c0-7.369 5.733-18.837 18.837-18.837l271.92 0.818c12.286 0 18.019 10.65 18.019 18.019L428.049 406.557z" p-id="16355" fill="#409eff"></path><path d="M420.438 550.017 127.766 550.017c-33.501 0-55.542 27.328-55.542 55.537l0 291.794c0 27.33 22.041 55.539 55.542 55.539l291.792 0c33.501 0 55.538-27.33 55.538-55.539L475.096 604.675C475.095 577.345 453.059 550.017 420.438 550.017zM428.05 886.122c0 7.37-5.731 18.837-18.84 18.837L138.113 904.959c-12.288 0-18.84-10.65-18.84-18.837L119.273 615.02c0-7.37 5.731-18.837 18.84-18.837l271.918 0 0 0.816c12.288 0 18.019 10.65 18.019 18.021L428.05 886.122z" p-id="16356" fill="#409eff"></path><path d="M897.939 551.227" p-id="16357" fill="#409eff"></path></svg>